<svg xmlns="http://www.w3.org/2000/svg" aria-hidden="true" style="display:none">
<symbol id="menu-avia" viewBox="0 0 10 10"><path fill="currentColor" d="M9.2 1.9c.3-.3 1-1.3.6-1.7-.3-.4-1.4.3-1.7.6L6.6 2.5 1 .6l-.7.7 3 1.5 2.1 1-1.8 1.9-.5.5H.6l-.6.6 2.4.9.9 2.3.5-.5V7l.5-.5 1.8-1.7 1 2 1.6 3 .7-.7-1.8-5.6 1.6-1.6z"></path></symbol>
<symbol id="menu-bus" viewBox="0 0 12 12"><path fill-rule="evenodd" fill="currentColor" d="M8,10H4v1c0,.6-.4,1-1,1a1,1,0,0,1-1-1V2c0-1.1.9-2,2-2h4a2,2,0,0,1,2,2v9c0,.6-.4,1-1,1a1,1,0,0,1-1-1v-1zM3,4c0-.5.5-1,1-1h4c.6,0,1,.4,1,1v2c0,.5-.5,1-1,1H4a1,1,0,0,1-1-1V4zm9,1.5c0,.3-.2.5-.5.5H11V3h.5c.3,0,.5.2.5.5v2zm-12-2c0-.3.2-.5.5-.5H1v3H.5a.5.5,0,0,1-.5-.5v-2zM1,3h1v1H1V3zm9,0h1v1h-1V3zM4,1.5c0-.3.2-.5.5-.5h3c.3,0,.5.2.5.5s-.2.5-.5.5h-3a.5.5,0,0,1-.5-.5zM3,8h2v1H3V8zm4,0h2v1H7V8z"></path></symbol>
<symbol id="menu-etrain" viewBox="0 0 9 15"><path fill="currentColor" d="M7,12s1-.3,1-1V5c0-1-.6-1.5-2-2V1h2v1h1s0-2-2-2H2C0,0,0,2,0,2h1V1h2v2c-1.4.4-2,1.1-2,2v6c0,.8,1,1,1,1v1l-2,2h1l2-2h3l2,2h1l-2-2v-1zM4,1h1v1H4V1zM3,11H2v-1h1v1zM2,8V5h5v3H2zm4,2h1v1H6v-1z"></path></symbol>
<symbol id="menu-hotels" viewBox="0 0 17 7"><path fill="currentColor" d="M16,0v4H1V0H0v7h1V6h15v1h1V0z"></path><path fill="currentColor" d="M4.4,2.4c0,.5-.3.7-1.4.7-1.1,0-1.4-.3-1.4-.7,0-.5.4-.9,1.4-.9s1.4.4,1.4.9zM15.5,2.9c0,.3-.4.3-.4.3H5.8c-.6-.1-.8-.4-.6-.7.2-.5.7-1,1.8-1h6.2c2,0,2.3.8,2.3,1.4z"></path></symbol>
<symbol id="menu-tours-hot" viewBox="0 0 10 13"><path fill="currentColor" d="M2.812 12.984c-.773-1.812-.365-2.834.233-3.806.642-1.071.817-2.125.817-2.125s.51.741.306 1.911c.904-1.12 1.064-2.933.933-3.608C7.128 6.953 8.003 10.43 6.822 13c6.212-3.971 1.546-9.919.729-10.578.277.676.321 1.796-.219 2.356C6.399.807 4.11 0 4.11 0c.277 2.043-.977 4.284-2.187 5.965-.044-.824-.088-1.385-.467-2.159C1.369 5.289.362 6.492.1 7.991c-.379 1.961.277 3.444 2.712 4.993z"></path></symbol>
<symbol id="menu-tours" viewBox="0 0 7 11"><path fill="currentColor" d="M3.6,0C1.7,0,0,1.5,0,3.4,0,5.9,3.2,11,3.6,11,3.9,11,7,6,7,3.4,7,1.5,5.5,0,3.6,0zm-.1,5.5c-1,0-1.8-.8-1.8-1.8s.8-1.8,1.8-1.8,1.8.8,1.8,1.8-.8,1.8-1.8,1.8z"></path></symbol>
<symbol id="menu-train" viewBox="0 0 9 12"><path fill="currentColor" d="M8,8V2.4C8,1.5,7,0,4.5,0S1,1.4,1,2.4V8c0,.8,1,1,1,1v1l-2,2h1l2-2h3l2,2h1l-2-2V9s1-.3,1-1zM4,1h1v1H4V1zM2,7h1v1H2V7zm5,1H6V7h1v1zm0-3H2V3h5v2z"></path></symbol>
<symbol id="close" viewBox="0 0 11 11"><path fill="currentColor" d="M10.4,1.4L9.6.6,5.5,4.8,1.4.6l-.8.8,4.2,4.1L.6,9.6l.8.8,4.1-4.2,4.1,4.2.8-.8-4.2-4.1z"/></symbol>
<symbol id="arrow-simple" viewBox="0 0 5 10"><path fill="none" stroke="currentColor" d="M0,0L5,5L0,10" stroke-width="1"/></symbol>
</svg>