<svg xmlns="http://www.w3.org/2000/svg" aria-hidden="true" style="display:none">
<symbol id="paste" viewBox="0 0 16 16"><path fill="currentColor" d="M11 2H9V1c0-.6-.5-1-1-1H6a1 1 0 0 0-1 1v1H3v2h8V2zM8 2H6V1h2v1zm5 3V2.5c0-.3-.2-.5-.5-.5h-1v1h.5v2H9L6 8v4H2V3h.5V2h-1c-.3 0-.5.2-.5.5v10c0 .3.2.5.5.5H6v3h10V5h-3zM9 6.4V8H7.4L9 6.4zm6 8.6H7V9h3V6h5v9z"/></symbol>
<symbol id="copy" viewBox="0 0 16 16"><path fill="currentColor" d="M10 4V0H3L0 3v9h6v4h10V4h-6zM3 1.4V3H1.4L3 1.4zM1 11V4h3V1h5v3L6 7v4H1zm8-5.6V7H7.4L9 5.4zm6 9.6H7V8h3V5h5v10z"/></symbol>
<symbol id="file" viewBox="0 0 16 16"><path fill="currentColor" d="M14.3 3.6a14.2 14.2 0 0 0-2.9-3L10 0H2.2C1.6 0 1 .6 1 1.2v13.6c0 .6.6 1.2 1.3 1.2h11.4c.7 0 1.3-.6 1.3-1.3V5c0-.2 0-.6-.7-1.4zm-2-.9L13.4 4H11V1.6l1.3 1.1zm1.7 12c0 .2-.1.3-.3.3H2.3a.3.3 0 0 1-.3-.3V1.3c0-.2.1-.3.3-.3H10v3.5c0 .3.2.5.5.5H14v9.8z"/></symbol>
<symbol id="folder" viewBox="0 0 16 16"><path fill="currentColor" d="M7 2l2 2h7v11H0V2z"/></symbol>
<symbol id="home" viewBox="0 0 16 16"><path fill="currentColor" d="M16 9.2L8 3 0 9.2V6.7L8 .5l8 6.2zM14 9v6h-4v-4H6v4H2V9l6-4.5z"/></symbol>
<symbol id="stack" viewBox="0 0 16 16"><path fill="currentColor" d="M16 5L8 1 0 5l8 4 8-4zM8 2.3L13.3 5 8 7.7 2.7 5 8 2.3zm6.4 4.9L16 8l-8 4-8-4 1.6-.8L8 10.4zm0 3l1.6.8-8 4-8-4 1.6-.8L8 13.4z"/></symbol>
</svg>